<svg height="48" viewBox="0 0 48 48" width="48" xmlns="http://www.w3.org/2000/svg"><g fill="none"><path d="m0 0h48v48h-48z"/><path d="m39.4939054 25.3624909 5.4093938-.3084505-4.1862506-2.5190121 6.4258085-3.8899031-7.803998-1.8849751 5.0131643-3.7870863-6.0123517.4284034 3.3765643-6.37464299-8.2174549 4.78098229.3962295-5.79201437-3.6522022 4.42112337-2.5151959-7.86548693-4.1001137 8.48238783-1.9983748-6.01478409-.7752316 6.30609849-5.5644401-7.31713058-.0861368 9.42487538-10.0091013-3.51290808 5.8573054 8.80797448-5.68503171-.4798119 4.28961482 3.7528141-7.941817 2.6561012 8.37250119 4.626757-6.58085483 2.1591533 7.20104013 1.3023464-7.37331382 6.9401355 10.83601492-2.3133785-1.30928 7.1286331 5.6678043-6.3575069 2.6185601 8.122529 4.530798-8.619477 2.8597432 5.8262866 1.9983748-5.8605588 7.3905412 7.1457691-2.2051032-10.0417763 5.702259 2.3647869-2.3946042-5.6891975 8.0796359.2913143zm-1.5332358 2.6046928-6.632537 1.490844.98196 5.3293386-6.356899-4.0612645-4.0828864 7.3342667-1.9983748-6.2032816-5.7883959 2.6903735 2.3084674-5.9291035-6.78758329-3.2730021 7.78677069-2.9131433-4.2551601-6.3917792 6.5119454 1.6450692.0344547-4.5753486 3.876158 4.5582124 3.4627011-6.2718261 2.2740127 6.1347371 5.0993012-3.2215938-1.5676906 5.9291034 5.8573054.2913143-4.8925727 3.8042225z" fill="#fff"/></g></svg>