<svg height="48" viewBox="0 0 48 48" width="48" xmlns="http://www.w3.org/2000/svg"><g fill="none" fill-rule="evenodd"><path d="m0 0h48v48h-48z" fill-rule="nonzero"/><path d="m5.22048021 13.6912531c.58151519 0 1.06041004.4619687 1.06041004 1.0608171v1.3687963h1.35116764c.58151518 0 1.02620327.4961886 1.02620327 1.077927s-.47889486 1.0608171-1.06041005 1.0608171h-1.35116763v1.3345764c0 .5817384-.47889486 1.0608171-1.06041005 1.0608171-.58151518 0-1.06041004-.4619687-1.06041004-1.0608171v-1.3516863h-1.35116763c-.58151519 0-1.06041005-.4790787-1.06041005-1.0608171s.47889486-1.0608171 1.09461682-1.0779271h1.35116764v-1.3516863c0-.5817384.47889486-1.0608171 1.06041004-1.0608171zm37.62745309 0c.5815152 0 1.0604101.4619687 1.0604101 1.0608171v1.3687963h1.3511676c.5815152 0 1.0262033.4961886 1.0262033 1.077927s-.4788949 1.0608171-1.0604101 1.0608171h-1.3511676v1.3345764c0 .5817384-.4788949 1.0608171-1.06041 1.0608171-.5815152 0-1.0604101-.4619687-1.0604101-1.0608171v-1.3516863h-1.3511676c-.5815152 0-1.0604101-.4790787-1.0604101-1.0608171s.4788949-1.0608171 1.0946169-1.0779271h1.3511676v-1.3516863c0-.5817384.4788949-1.0608171 1.06041-1.0608171zm-20.5240653-11.97696739c.5815152 0 1.06041.46196875 1.06041 1.06081711v1.36879628h1.3511677c.5815152 0 1.0262032.49618864 1.0262032 1.07792706 0 .58173841-.4788948 1.06081711-1.06041 1.06081711h-1.3511676v1.33457636c0 .58173842-.4788949 1.06081711-1.0604101 1.06081711s-1.06041-.46196874-1.06041-1.06081711v-1.35168631h-1.3511677c-.5815151 0-1.06041-.4790787-1.06041-1.06081711 0-.58173842.4788949-1.06081711 1.0946168-1.07792707h1.3511677v-1.35168632c0-.58173841.4788948-1.06081711 1.06041-1.06081711zm11.4079597 17.48637239v-2.1387442c.9406863-.2566493 2.0181997-.9752673 2.8049555-2.8231423.7525491-1.7281053.9064796-3.67864.4275847-5.62917467-.8038592-3.33644091-2.8220589-5.25275569-3.4206775-5.74894434-.1881373-.15398958-.4275847-.23953935-.6670321-.23953935-.2394475 0-.4788949.08554977-.6670322.23953935-.5986185.5132986-2.6168183 2.41250343-3.4206775 5.74894434-.4788949 1.96764467-.3249644 3.90106937.4275847 5.62917467.8038592 1.830765 1.8642692 2.566493 2.8049556 2.8231423v2.1387442c-3.5917115.2566493-6.3795637 1.9847546-6.3795637 4.1063888v18.8209487c0 2.2927338 3.2496437 4.1577187 7.2689398 4.1577187 4.0192962 0 7.2689398-1.8649849 7.2689398-4.1577187v-18.8209487.0171099-.0171099c0-2.1387442-2.8220589-3.8668495-6.4479771-4.1063888zm-2.9417827-5.6462846c-.5986186-1.3859063-.7183423-2.942912-.3249644-4.55124764.5473084-2.25851385 1.7274421-3.72996984 2.428681-4.44858788.7012389.71861804 1.8813727 2.19007403 2.4286811 4.44858788.3933779 1.59122564.2736542 3.16534134-.3249644 4.55124764-.3591711.8041678-.7867558 1.3345763-1.2656506 1.6254455v-1.1121469c0-.4790787-.3762746-.8554977-.8551694-.8554977-.4788949 0-.8551694.376419-.8551694.8554977v1.1121469c-.4617915-.2908692-.8893762-.8212777-1.2314439-1.6254455zm-15.0167745-5.80027424c.2394474 0 .4788948.08554977.6670321.23953935.5986186.49618865 2.6168183 2.41250339 3.4206776 5.74894429.4788948 1.9505347.3249643 3.9010694-.4275847 5.6291747-.7867559 1.847875-1.8642693 2.566493-2.8049556 2.8231423v2.1387442c3.6259182.2395393 6.4479772 1.9676446 6.4479772 4.1063888v13.6879627c0 2.2927338-3.2496437 4.1577187-7.2689398 4.1577187-4.0192962 0-7.26893986-1.8649849-7.26893986-4.1577187v-13.6879627c0-2.1216342 2.78785226-3.8497395 6.37956366-4.1063888v-2.1387442c-.9406863-.2566493-2.0010964-.9923773-2.8049556-2.8231423-.7525491-1.7281053-.9064796-3.66153-.4275847-5.6291747.8038592-3.3364409 2.822059-5.23564569 3.4206776-5.74894429.1881372-.15398958.4275846-.23953935.6670321-.23953935zm17.9585572 13.15755414c2.8733691.2224294 4.7376384 1.5056759 4.7376384 2.3953935 0 .9752673-2.2234404 2.4467233-5.5586011 2.4467233-3.3351606 0-5.558601-1.471456-5.558601-2.4467233 0-.8897176 1.8471659-2.1558541 4.6692249-2.3953935v2.3098437c0 .4790787.3762745.8554977.8551694.8554977.4788948 0 .8551694-.376419.8551694-.8554977zm-17.9414538-11.22412941c-.7012389.71861801-1.8813727 2.19007401-2.4286811 4.44858791-.3933779 1.6083356-.2736542 3.1653413.3249644 4.5512476.3420677.8041678.7696524 1.3345763 1.2485473 1.6254455v-1.1121469c0-.4790787.3762745-.8554977.8551694-.8554977.4788948 0 .8551694.376419.8551694.8554977v1.1121469c.4788948-.3079791.9064795-.8212777 1.2485473-1.6254455.5986185-1.3859063.7183422-2.960022.3249643-4.5512476-.5473084-2.2585139-1.7274421-3.7299699-2.428681-4.44858791z" fill="#fff"/></g></svg>