<svg height="48" viewBox="0 0 48 48" width="48" xmlns="http://www.w3.org/2000/svg"><g fill="none" opacity=".9"><path d="m0 0h48v48h-48z"/><path d="m35.0645231 23.9718314c-1.2155835.0056693-2.3146497-.7216292-2.7837932-1.8421868s-.2157703-2.413212.6417617-3.2741272c.857532-.8609153 2.1499733-1.1201741 3.2735875-.6566693s1.8566491 1.5582921 1.8566491 2.7729555c0 1.6513664-1.3355875 2.9922416-2.9882051 3.0000278zm-5.9905055-7.9859009c-1.2155835.0056693-2.3146497-.7216291-2.7837932-1.8421868-.4691435-1.1205576-.2157703-2.413212.6417617-3.2741272s2.1499733-1.12017408 3.2735875-.6566693c1.1236142.4635048 1.8566491 1.5582922 1.8566491 2.7729555 0 1.6513664-1.3355875 2.9922416-2.9882051 3.0000278zm-9.9935727-.0000333c-1.6581247 0-3.0023004-1.3431433-3.0023004-2.999989 0-1.6568567 1.3441757-3.00000001 3.0023004-3.00000001 1.6581248 0 3.0023004 1.34314331 3.0023004 3.00000001 0 1.6568457-1.3441756 2.999989-3.0023004 2.999989zm-5.9905055 7.9859342c-1.2155835.0056693-2.3146497-.7216292-2.7837932-1.8421868-.46914351-1.1205576-.2157703-2.413212.6417617-3.2741272.857532-.8609153 2.1499733-1.1201741 3.2735875-.6566693s1.8566491 1.5582921 1.8566491 2.7729555c0 1.6513664-1.3355875 2.9922416-2.9882051 3.0000278zm10.923863-17.9718314c-9.9487483 0-18.0138024 8.0588597-18.0138024 17.999967s8.0650541 18.0000003 18.0138024 18.0000003c.7949607.0037137 1.5586484-.3092174 2.1220979-.8695908.5634494-.5603734.8802114-1.3219935.8802025-2.1163525.0000121-.7483186-.2759914-1.4703907-.7752419-2.0281653-.4904074-.5397497-.7617981-1.2428146-.7611466-1.9718273-.0037498-.7943501.3094218-1.5574514.870226-2.120468.5608041-.5630167 1.3230097-.8795354 2.1179791-.8795265h3.5379221c5.5137979.0000054 9.9857958-4.4622552 9.9938671-9.9718128.0560868-8.9013921-7.9923335-16.0422241-17.9859062-16.0422241z" fill="#fff"/></g></svg>