<svg height="48" viewBox="0 0 48 48" width="48" xmlns="http://www.w3.org/2000/svg"><g fill="none"><path d="m0 0h48v48h-48z"/><path d="m29.0388109 12.2773956.0867052-.0691089-3.2947977-4.87218048v-5.61510158c0-.4837626-.3815029-.86386178-.867052-.86386178s-.867052.38009918-.867052.86386178v5.2350024h-1.9248555v-5.2350024c0-.4837626-.3815029-.86386178-.867052-.86386178-.4855492 0-.8670521.38009918-.8670521.86386178v5.61510158l-3.1213873 4.90673488.0173411.0172773c-7.0751445 2.418813-12.19075146 9.0878259-12.19075146 16.9489681 0 9.8825788 8.08092486 17.9337706 17.99999996 17.9337706 1.8728324 0 3.7109827-.293713 5.4797688-.8465845.4508671-.1382179.7109827-.6392577.5549133-1.0884658-.1387283-.4492082-.6242774-.7083667-1.0924855-.5528716-.9364162.293713-1.9075145.4837626-2.8959538.6047033.867052-.8638618 1.6647399-2.0041594 2.3410405-3.369061h5.7225433c-.5549133.4492081-1.1445086.8638618-1.7687861 1.2266837-.416185.2418813-.5375722.7774756-.2947977 1.1921293.2427746.4146537.7803468.5355943 1.1965318.293713 5.4104046-3.2308431 8.7572254-9.1223804 8.7572254-15.394017-.017341-7.8438649-5.0809248-14.4956007-12.1040462-16.9316909zm9.5375723 21.8729803h-2.982659c.1040462-.4492081.2427746-.881139.3121387-1.3476243.0867052-.4664854-.2254335-.9156935-.7109826-1.0020797-.4855492-.069109-.9190752.2418813-1.0057804.7083667-.1040462.5528715-.2427745 1.0884658-.3815029 1.6413373h-3.9884393c.1907515-1.3649016.2947977-2.8161894.3294798-4.3020316h9.2080925c-.0693642 1.468565-.3294798 2.9198528-.7803468 4.3020316zm-12.0867052 1.7104464h1.2658959c-.3294798 1.5722284-.7630058 3.0235162-1.300578 4.2847544h-6.2080925c-.5375723-1.2612382-.9710983-2.712526-1.300578-4.2847544h3.5895953c.4855492 0 .867052-.3800992.867052-.8638618s-.3815028-.8638618-.867052-.8638618h-3.884393c-.2080925-1.3649016-.3294798-2.8161894-.3468208-4.3020317h10.1098265c-.034682 1.4858423-.1387283 2.9198529-.3468208 4.3020317h-1.5606936c-.4855491 0-.867052.3800992-.867052.8638618 0 .4664853.3815029.8638618.849711.8638618zm-13.4393064 6.012478h6.1560694c.6936416 1.3994561 1.5260115 2.5743081 2.4277456 3.4381699-3.2254335-.293713-6.1907514-1.537674-8.583815-3.4381699zm2.7919075-1.7277236c-.9884393-1.2785154-1.7861272-2.7298032-2.3757225-4.2847544h3.7283237c.3121387 1.5549512.7283237 2.9889617 1.2312138 4.2847544zm-8.02890173-16.3269877h3.39884393c-.3641618 1.3821789-.5722543 2.8161894-.6416185 4.2847545h-3.64161849c.10404624-1.4858423.39884393-2.9371301.88439306-4.2847545zm22.30057803 4.2847545c-.0346821-1.5203968-.1734104-2.9544073-.3815029-4.2847545h3.9537572c.3641619 1.3649016.5722544 2.8161894.6069365 4.2847545zm-.6589595-6.012478c-.3468208-1.5549512-.8150289-2.9716846-1.4046243-4.2847545h2.6358381c1.0404625 1.2612382 1.8728324 2.712526 2.4797688 4.2847545zm-3.2947977-4.3020317c.6416185 1.2957927 1.1271676 2.7470805 1.4913295 4.2847544h-8.5838151c.3641619-1.5895057.83237-3.0407934 1.4046243-4.2847544zm-4.7687861-1.7277236c.6069364-.9675252 1.2658959-1.7277235 1.9768786-2.2460406.4682081.3282675.9710982.7774756 1.4913294 1.4340105.1734105.2073269.416185.3282675.6763006.3282675.1907515 0 .3815029-.0691089.5375723-.1900496.3815029-.293713.433526-.8465845.1387283-1.2094065-.3121387-.3973764-.6242775-.7256439-.9364162-1.0193569 2.7225434.362822 5.2369942 1.3821789 7.3526012 2.9198529h-11.2369942zm.1907514-2.9889617c-.8150289.7774756-1.5606936 1.7795552-2.2023121 2.9889617h-5.7398844c2.2716763-1.6413374 4.9942196-2.712526 7.9421965-2.9889617zm-3.017341 4.7166853c-.5202313 1.2785154-.9537573 2.7298032-1.283237 4.2847544h-3.6242775c.6416185-1.5722284 1.5086705-3.0235162 2.549133-4.2847544zm-1.5953758 6.0297552c-.0693641.4492082-.1387283.9329708-.1907514 1.3994561-.0520231.4664854.2947977.8984163.7630058.950248h.1040462c.433526 0 .8150289-.3282675.867052-.7601984.0520232-.5355943.1387284-1.0711886.2254336-1.5895057h9.2601156c.2254335 1.3303472.3468208 2.7643577.3815029 4.2847545h-16.0751445c.0867052-1.4685651.3294797-2.9198529.7456647-4.2847545zm-10.05780343 6.012478h3.64161853c.0520231 1.4685651.2254335 2.9025756.5549133 4.3020317h-3.46820813c-.43352601-1.3649016-.67630058-2.7989122-.7283237-4.3020317zm5.37572253 0h4.300578c.0346821 1.4858423.1387284 2.9198529.3294798 4.3020317h-4.0057803c-.3641619-1.3821788-.5722544-2.8161894-.6242775-4.3020317zm23.7745665-1.7277235c-.0346821-1.4685651-.2254335-2.9198529-.5549133-4.2847545h2.9653179c.4855491 1.3649016.7803468 2.7989122.8843931 4.2847545zm1.6647399-6.012478h-2.7225434c-.5375722-1.537674-1.2658959-2.9889618-2.150289-4.2847545h1.8034682.0173411c1.2485549 1.2266838 2.2716763 2.6779715 3.0520231 4.2847545zm-16.1098266-13.4071349h3.0346821l1.9595375 2.9198528c-1.1271676-.224604-2.2890173-.3455447-3.4855491-.3455447-1.1445087 0-2.2716763.1209407-3.3641618.3282675zm-10.0231214 9.1051032h2.4277457c-.9364162 1.3130699-1.699422 2.7470805-2.2543353 4.2847544h-3.22543353c.78034682-1.5722284 1.80346823-3.0407934 3.05202313-4.2847544zm-3.26011561 18.0719885h3.29479771c.5202312 1.5376739 1.2138728 2.9716845 2.0982659 4.2847544h-2.3236995c-.0693641 0-.1213872.0172772-.1734104.0345545-1.1965317-1.2612382-2.16763001-2.7298033-2.89595371-4.3193089zm15.03468211 8.7077267c-.83237-.6047032-1.5953758-1.5203967-2.2543353-2.6952487h4.5086705c-.6589595 1.174852-1.4219653 2.0905455-2.2543352 2.6952487zm6.1560693-8.7077267h3.7109827c-.5895954 1.5549512-1.3526012 3.006239-2.3410405 4.2674772v.0172772h-2.601156c.5028901-1.2957927.9190751-2.7298032 1.2312138-4.2847544zm-25.23864571 4.424892c.57424349 0 1.04714989.4548964 1.04714989 1.044577v1.3478414h1.33427164c.591133 0 1.04714989.4717444 1.04714989 1.044577s-.4729064 1.0445771-1.04714989 1.0445771h-1.33427164v1.3309933c0 .5728326-.4729064 1.044577-1.04714989 1.044577s-1.0471499-.4548964-1.0471499-1.044577v-1.3309933h-1.33427164c-.57424349 0-1.04714989-.4717445-1.04714989-1.0445771s.4729064-1.044577 1.04714989-1.044577h1.33427164v-1.3478414c0-.5728325.47290641-1.044577 1.0471499-1.044577zm36.00000001-.8571429c.5742435 0 1.0471499.4560169 1.0471499 1.0471499v1.3342717h1.3342716c.591133 0 1.0471499.4897959 1.0471499 1.0640394s-.4729064 1.0471499-1.0471499 1.0471499h-1.3342716v1.3173821c0 .5742435-.4729064 1.0471499-1.0471499 1.0471499s-1.0471499-.4560169-1.0471499-1.0471499v-1.3342716h-1.3342716c-.5742435 0-1.0471499-.4729065-1.0471499-1.0471499 0-.5742435.4729064-1.0471499 1.0471499-1.0471499h1.3342716v-1.3342717c0-.5742435.4729064-1.0471499 1.0471499-1.0471499zm-2.3856317-3.5677491c-.7283237 1.6067829-1.699422 3.0753479-2.8959538 4.3711406-.1040462-.0518317-.2254335-.0863862-.3641618-.0863862h-1.6647399c.867052-1.3130699 1.5780347-2.7470805 2.0982659-4.2847544zm5.8142031-4.1465366c.5742435 0 1.0471499.4548965 1.0471499 1.0445771v1.3478413h1.3342716c.5911331 0 1.0471499.4717445 1.0471499 1.0445771 0 .5728325-.4729064 1.044577-1.0471499 1.044577h-1.3342716v1.3309933c0 .5728326-.4729064 1.0445771-1.0471499 1.0445771s-1.0471499-.4548965-1.0471499-1.0445771v-1.3309933h-1.3342716c-.5742435 0-1.0471499-.4717445-1.0471499-1.044577 0-.5728326.4729064-1.0445771 1.0471499-1.0445771h1.3342716v-1.3478413c0-.5728326.4729064-1.0445771 1.0471499-1.0445771zm-39.42010581-22.28571427c.57566138 0 1.04973545.45378151 1.04973545 1.04201677v1.3445379h1.33756614c.59259259 0 1.03280423.4873949 1.03280423 1.0588235s-.47407407 1.0420168-1.04973545 1.0420168h-1.33756613v1.3277311c0 .5714286-.47407408 1.0420168-1.04973545 1.0420168-.57566138 0-1.04973545-.4537815-1.04973545-1.0420168v-1.3277311h-1.33756614c-.59259259 0-1.03280423-.487395-1.03280423-1.0588235 0-.5714286.47407407-1.0420168 1.04973545-1.0420168h1.33756613v-1.3445379c0-.57142854.47407408-1.04201677 1.04973545-1.04201677zm34.28571431-1.71428572c.5756614 0 1.0497354.45378152 1.0497354 1.04201681v1.34453778h1.3375662c.5925926 0 1.0328042.487395 1.0328042 1.0588236 0 .5714285-.4740741 1.0420168-1.0497354 1.0420168h-1.3375662v1.3277311c0 .5714285-.4740741 1.0420168-1.0497354 1.0420168-.5756614 0-1.0497355-.4537815-1.0497355-1.0420168v-1.3277311h-1.3375661c-.5925926 0-1.0328043-.487395-1.0328043-1.0588236 0-.5714285.4740741-1.0420168 1.0497355-1.0420168h1.3375661v-1.34453778c0-.57142857.4740741-1.04201681 1.0497355-1.04201681zm-25.7142857-3.42857142c.5756613 0 1.0497354.45378151 1.0497354 1.0420168v1.34453782h1.3375662c.5925925 0 1.0328042.48739496 1.0328042 1.05882353s-.4740741 1.0420168-1.0497355 1.0420168h-1.3375661v1.32773106c0 .5714286-.4740741 1.0420168-1.0497355 1.0420168-.5756613 0-1.0497354-.4537815-1.0497354-1.0420168v-1.32773106h-1.3375661c-.59259263 0-1.03280427-.48739495-1.03280427-1.05882353 0-.57142857.47407407-1.0420168 1.04973547-1.0420168h1.3375661v-1.34453782c0-.57142857.4740741-1.0420168 1.0497355-1.0420168zm-6.85714289-3.42857143c.57566137 0 1.04973545.45378151 1.04973545 1.0420168v1.34453782h1.33756614c.59259259 0 1.03280423.48739496 1.03280423 1.05882353s-.47407408 1.04201681-1.04973545 1.04201681h-1.33756614v1.32773109c0 .57142857-.47407407 1.0420168-1.04973545 1.0420168-.57566137 0-1.04973545-.45378151-1.04973545-1.0420168v-1.32773109h-1.33756614c-.59259259 0-1.03280423-.48739496-1.03280423-1.05882353 0-.57142858.47407408-1.04201681 1.04973545-1.04201681h1.33756614v-1.34453782c0-.57142857.47407407-1.0420168 1.04973545-1.0420168z" fill="#fff"/></g></svg>