<svg height="48" viewBox="0 0 48 48" width="48" xmlns="http://www.w3.org/2000/svg"><g fill="none" opacity=".9"><path d="m0 0h48v48h-48z"/><path d="m15.2747093 32.7219193c.5101744.5103599.5101744 1.3347874 0 1.8451472l-2.1584302 2.1592149c-.2485465.261723-.5886628.3794983-.9156977.3794983-.3401163 0-.6671512-.1308615-.9287791-.3794983-.5101744-.5103599-.5101744-1.3347874 0-1.8451473l2.1584303-2.1592148c.5101744-.5103599 1.3343023-.5103599 1.8444767 0zm19.2819767 0 2.1584303 2.1592148c.5101744.5103599.5101744 1.3347874 0 1.8451473-.2485465.261723-.5755814.3794983-.9156977.3794983s-.6671512-.1308615-.9287791-.3794983l-2.1584302-2.1592149c-.5101744-.5103598-.5101744-1.3347873 0-1.8451472s1.3343023-.5103599 1.8444767 0zm6.1351745-10.0370774c.7194767 0 1.3081395.5888767 1.3081395 1.308615s-.5886628 1.3086151-1.3081395 1.3086151h-3.0348838c-.7194767 0-1.3081395-.5888768-1.3081395-1.3086151s.5886628-1.308615 1.3081395-1.308615zm-30.3488372 0c.7194767 0 1.3081395.5888767 1.3081395 1.308615s-.5755814 1.3086151-1.3081395 1.3086151h-3.03488377c-.71947674 0-1.30813953-.5888768-1.30813953-1.3086151s.58866279-1.308615 1.30813953-1.308615zm26.3851744-11.4111233c.5101744.5103599.5101744 1.3347874 0 1.8451473l-2.1584303 2.1592148c-.2485465.2486369-.5886627.3794984-.9156976.3794984-.3401163 0-.6671512-.1308615-.9287791-.3794984-.5101744-.5103599-.5101744-1.3347874 0-1.8451472l2.1584302-2.1592149c.5101744-.5103598 1.3343024-.5103598 1.8444768 0zm-23.625 0 2.1584302 2.1592149c.5101744.5103598.5101744 1.3347873 0 1.8451472-.2354651.2486369-.5755814.3794984-.9156977.3794984-.3401162 0-.6671511-.1308615-.928779-.3794984l-2.1584303-2.1592148c-.5101744-.5103599-.5101744-1.3347874 0-1.8451473.5101744-.5103598 1.3343024-.5103598 1.8444768 0zm10.8968023 25.0730644c.7194767 0 1.3081395.5888768 1.3081395 1.308615v3.035987c0 .7197382-.5886628 1.308615-1.3081395 1.308615s-1.3081395-.5888768-1.3081395-1.308615v-3.035987c0-.7197382.5886628-1.308615 1.3081395-1.308615zm0-21.1733915c4.8694176 0 8.8168605 3.9488778 8.8168605 8.8200654 0 4.8711877-3.9474429 8.8200655-8.8168605 8.8200655s-8.8168605-3.9488778-8.8168605-8.8200655c0-4.8711876 3.9474429-8.8200654 8.8168605-8.8200654zm0-9.1733915c.7194767 0 1.3081395.58887677 1.3081395 1.30861505v3.03598695c0 .7197382-.5886628 1.308615-1.3081395 1.308615s-1.3081395-.5888768-1.3081395-1.308615v-3.03598695c0-.71973828.5886628-1.30861505 1.3081395-1.30861505z" fill="#fff"/></g></svg>