<svg height="48" viewBox="0 0 48 48" width="48" xmlns="http://www.w3.org/2000/svg"><g fill="none" fill-rule="evenodd"><path d="m0 0h48v48h-48z"/><path d="m22.4540608 6.85714286c-4.384615 5.93506824-3.1342495 14.30418134 2.8008187 18.68879634 4.7180458 3.4843519 11.1699318 3.4843519 15.8879776 0-.86692 9.4527632-9.2360331 16.4047954-18.6887963 15.5212038-9.4527632-.8835917-16.40479539-9.2360332-15.52120377-18.6887964.7502193-8.2357408 7.28546297-14.7543129 15.52120377-15.52120374zm14.5323653.65142857c.5828571 0 1.0628571.46285714 1.0628571 1.06285714v1.35428572h1.3542858c.5828571 0 1.0285714.49714281 1.0285714 1.08000001 0 .5828571-.48 1.0628571-1.0628572 1.0628571h-1.3542857v1.3371429c0 .5828571-.48 1.0628571-1.0628571 1.0628571-.5828572 0-1.0628572-.4628571-1.0628572-1.0628571v-1.3542857h-1.3542857c-.5828571 0-1.0628571-.48-1.0628571-1.0628572 0-.5828571.48-1.06285711 1.0628571-1.06285711h1.3542857v-1.35428572c0-.6.5142858-1.06285714 1.0971429-1.06285714z" fill="#fff" fill-rule="nonzero"/></g></svg>