<svg height="48" viewBox="0 0 48 48" width="48" xmlns="http://www.w3.org/2000/svg"><g fill="none"><path d="m0 0h48v48h-48z"/><path d="m27.4285714 41.1428571c-.404614.9874286-1.7675244 1.7142858-3.4285714 1.7142858-1.6397516 0-3.0026619-.7542858-3.4285714-1.7142858zm1.7142857-5.1428571v2.2788708c0 .6364414-.420168 1.1497006-.9411764 1.1497006h-8.4033614c-.5210084 0-.9411764-.5132592-.9411764-1.1497006v-2.2788708zm-14.2179998-29.1526349c5.202484-4.55839156 12.9973922-4.55839156 18.1469695 0 5.3435683 4.6991913 6.1724387 12.8303762 1.9751804 18.4975657-1.2873943 1.7071969-2.257349 3.1679942-2.9980416 4.5935915l-2.257349 4.347192h-11.5689135l-2.257349-4.347192c-.7406926-1.4079974-1.7282828-2.8863946-2.9980416-4.5935915-4.21489382-5.6847894-3.38602349-13.7983744 1.9575448-18.4975657zm5.7284729 5.4581512c-.4066839-.4073551-1.0844905-.4073551-1.4911744 0-.4066839.407355-.4066839 1.08628 0 1.493635l3.3381972 3.3437058-3.3381972 3.3437058c-.4066839.4073551-.4066839 1.0862801 0 1.4936351s1.0844905.407355 1.4911744 0l3.3551424-3.3437058 3.3381972 3.3437058c.4066839.407355 1.0844905.407355 1.4911744 0s.4066839-1.08628 0-1.4936351l-3.3551424-3.3437058 3.3381972-3.3437058c.406684-.407355.406684-1.08628 0-1.493635-.4066839-.4073551-1.0844904-.4073551-1.4911744 0l-3.3381972 3.3437058z" fill="#fff"/></g></svg>