<svg height="163" viewBox="0 0 149 163" width="149" xmlns="http://www.w3.org/2000/svg"><g fill="#fff" opacity=".9"><path d="m148.057954 50.9893053c-2.300997-1.4563563-4.356216-7.0208157-5.79275-7.2607357-2.720516-.4503761-7.297085-1.1238356-10.013363-1.5994664-2.089119-.3661936-4.135863-.9765163-6.229219-1.3258735-3.262924-.5471858-4.945237-.9933528-5.135927 1.4226833-.161028 2.0203786-1.372971 4.4069509-3.008671 5.0762013-.101701-1.9067323-1.576374-4.0786393-3.453614-4.7605171-4.78421-1.7425766-7.394549-5.9811625-7.920007-8.1993699-.525458-2.2182073 1.508572-6.2589646 3.52989-8.9022933.796662-1.0396531.589022-1.692067-.644109-2.0287968-1.860291-.5093038-3.737532-.9386342-5.699524-1.4226833-.029663-.8334062.567834-1.2585275 1.46196-1.3763829 2.745941-.3661936 4.940999.6019044 6.780102 2.6307013 2.284047 2.517055 3.508703 6.5746487 6.258882 8.9022933 4.521481 3.8218828 11.538886 4.0070842 15.386594-2.1971618l1.317883-1.7215309c.567833-.5976954 1.419584-1.1532995 2.703565-.9680981 1.228894.1809922 1.970468.6692504 2.589152 1.414265.368668-.3241024.19069-1.5952573-.300867-2.4118269-.491557-.8207789-1.275507-1.3511282-2.207771-1.6289303-.724623-.2188744-1.449247-.2609656-2.199295-.0968098-1.050916.2272926-1.767065.8923339-2.423887 1.6668123-.042376.0463004-.203403.1936197-.203403.1936197-.063564-.1052281-.097464-.1599467-.131365-.2146653-.495795-.8839156-1.072103-1.6752306-2.059456-2.0961428-.703435-.3030568-1.428059-.3998666-2.178107-.3241024-.966165.0968098-1.839103.4672126-2.478975 1.1785542s-1.063629 1.9235688-.762762 2.310808c.750049-.6145318 1.576374-.9554707 2.813743-.896543 1.296694.0589277 1.847577.9596799 2.241671 1.6836489.381381.7029234-.237304 1.7509948-.237304 1.7509948s-3.47904 4.5374336-9.729446.2567564c-2.62729-1.7972951-4.47063-5.0635739-6.432622-7.5764198-1.856053-2.378154-3.360388-3.3378338-6.000391-3.5398717-1.538235-.1178554-3.377338.3830301-3.377338.3830301 1.906904-2.2518803 6.81824-2.6685834 10.216766-1.9193596-.15679-.5682315-.241541-.9680981-.377143-1.3469191-.546646-1.5531661-.737336-3.0305679.563596-4.3690688.211878-.2188743.266967-.7281781.190691-1.0564896-.478845-2.01196038-1.008541-4.01129339-1.546711-6.00641727-.258492-.95967984-.847513-1.36375556-1.919617-1.46056537-1.275506-.1136463-5.313905-1.81413163-6.284307-1.78045865-2.779842.09260068-4.796922.9512616-8.3310506-.21887435-.2542538-.09260069-7.6149022-.86707916-10.2549045-1.15329946.2245908.30726591 1.2373686 1.04807141 1.6653626 1.49844747 1.3856834 1.45214713 1.2034681 2.36973575-.6398722 3.19893281-1.5975616.71555075-3.2502115 1.47740186-4.0638237 3.10633211-1.0170154 2.02879686-1.8772408 4.14598531-2.6781404 6.27159191-.4152813 1.1069992-.9788773 2.3360628-2.4959251 2.6475378.1779776.4293305 2.2882845.6061136 3.1654602-.0841824.9026011-.7155508 1.262794-.7029234 1.6017991-.6776687-1.9747047 1.6626033-4.4197791 10.1271478-4.0977242 14.3488973.1949279 2.5633554.5424081 5.1140834.864463 7.6648114.2161157 1.7299492.0084751 3.3883433-.8093747 4.9204637-3.3264877 6.237919-9.1065248 7.8289672-16.0010412 6.305265-1.6356997-.3619845-5.0172756-1.2964097-5.1105021-1.031235-.1525523 1.3637556.0635635 1.8393864.8390377 3.3252065 1.4407717 2.7527659 7.958145 6.3599835 9.881999 6.721968 1.3772082.2609656 2.0213179-.0084182 2.0213179-.0084182s-3.7883821 3.9902477-4.5045304 8.5908182c-.6949605 4.4658786-4.4663923 13.6375556-8.2166363 16.6723327-4.3307903 3.5104078-8.9370223 5.0214827-12.1236703 5.3371668-3.186648.3156842-5.869026-.6271592-6.9538423-1.3848012-3.2290237-2.2518803-4.5553812-4.5037606-4.9240492-8.0983509-.3686681-3.5903812 1.1610925-7.7826668 4.1782379-10.960554 2.2374338-2.3571084 5.5935844-4.5458519 10.6532356-3.8092555 4.8350604.7071325 7.7589795 2.6349105 10.1955787 5.5728777 1.457722-1.275364.7500488-6.271592-1.1865179-9.4999886-1.9365667-3.2283967-5.0257507-5.3161212-8.6870059-6.410493-2.8476429-.8544518-5.703761-1.0228167-8.6615806-.3830301-4.1273872.896543-6.9623174 3.5188261-9.5472314 6.5620214-.1610274.1894105-.8051371.757642-.8051371.757642-.2542539-.4167031-.3898559-.6229501-.5127453-.8376153-1.9450418-3.480944-4.2206136-6.5956944-8.1022221-8.2582976-2.7756043-1.1911816-5.6147721-1.5700026-8.5725917-1.275364-3.80109483.378821-7.23775913 1.8393863-9.76334721 4.6384525-2.52558807 2.7990662-4.18247554 7.5722107-2.99595766 9.100122 2.95781959-2.416036 6.19955596-3.7545369 11.08122957-3.5272443 5.1062644.2357109 7.0894443 3.8892288 8.8310831 6.6293673 2.3476104 3.6956093 2.5383008 7.8415945 2.6908531 12.0422984.1101766 3.1400051.2839167 4.7983992 1.0721036 7.824758.9704022 3.7334913 2.2501464 6.3052649 7.8733937 8.8012743.0550883.0252548-3.8307577 3.5651265-4.3053649 8.9149205-.8898884 9.929319 8.6488679 16.731261 18.6283308 15.687398 9.0938121-.951261 14.8780868-4.992019 16.6324382-13.073533.7754742-3.565126.2754417-10.8553259-4.0341608-12.4379558 8.3734263-.7113417 17.5519896-2.9000852 23.3659273-7.2312718-1.0551534.7828967-.7966621 3.9944569-.7161483 5.1098742.2373035 3.4851531 1.6568874 8.2204154 5.0850766 9.8830184.9576895-1.111208.1610274-7.6058833 2.4747373-12.7578488 1.7797768-3.964993 6.3817712-9.824091 9.6574081-12.3664007 2.64424-2.0498425 12.339786-8.7844379 17.526564-9.5252434.872938-.1262736 1.771302-.7828967 2.445075-1.4184741 2.063693-1.9404053 3.979072-4.032339 6.047003-5.9727443 1.224656-1.1490903 3.118847-2.9337581 3.754482-3.7250731.635634-.7913149 1.597561 3.7966282 2.03403 4.8152357 1.11448 2.6054466 1.457722 5.4592314 1.317883 5.1098743-.245779.8670791-2.673903 1.3679646-3.318013 1.9867056-.461894.4461669.241541 2.1424431.483083 3.3715068.194928.9933528-.45342.8544518-.444945 2.066679-.572071.7155507-1.52976.5850679-2.48745 1.1490903.47037.2988477.779712.8291971.872939 1.2459001.076276.1473193-.953452.4040758-2.127258-.450376.762762 1.6920671 2.373036 1.4563562 2.724754 1.5657934.258491.1767831.474607.5219311.559358.9723072.767-.0883916.754287-.896543 2.373036-1.5700025 1.800965-5.2992848 4.822348-4.6131979 5.627485-7.3870093 0 0-.250016-2.9127125.618684-4.8867908-.258491-.8039423-2.449311-6.1621548-2.656952-8.1236057-.169503-1.620512-.567834-3.2283966-1.593324-4.4532512-1.16533-1.3932194-7.581002-.9428433-7.852206-.8670791-.161027-1.2711549 1.267032-2.9926859 2.34761-3.6493089.720386-.4377487 2.216246-1.96566 2.551014-1.9025232 2.640002.5050947 8.259012 1.1238356 8.576829 1.309037.783949.4545852.872938 2.3150171 1.317882 3.0894956.317818.5556041 2.148445.3030568 3.407002.378821 1.017015.0589277.720386.6524139 1.902666.9470525.555121.7281781.186453 1.6163029.500033 2.6770016.411043-.378821 1.004302-.5429767 1.432296-.5261402.161028-.0378821.15679 1.0186075-.970402 1.931987 1.839103-.311475 2.01708-1.9193597 2.207771-2.2266256.237303-.2020378.627159-.3283115 1.084816-.2988476.105939-.7492238-.67801-.9428434-.932264-2.6643743zm-94.1332439 54.8364427c-.8898884 4.108103-4.3604532 6.532558-8.5090283 6.928215-4.4155415.420912-8.8310831-2.811693-8.5386912-7.399637.1398396-2.188743 1.5424733-4.305931 3.1612227-5.6444323 1.7797768-1.4774019 3.3731008-2.0456334 6.3944839-2.0456334 1.9111413 0 3.089184.2820112 5.1444025 1.5531661 2.2120084 1.3637556 2.7374663 4.7941896 2.3476104 6.6083216zm45.3037954-53.051775c-1.1144793.1852014-1.9874174 1.0522806-2.1738702 2.1592797l-1.5933241 9.3652967-1.593324-9.3652967c-.1864528-1.1069991-1.0593909-1.9740783-2.1738702-2.1592797l-9.4285797-1.5826299 9.4285797-1.5826299c1.1144793-.1852014 1.9874174-1.0522805 2.1738702-2.1592796l1.593324-9.3652967 1.5933241 9.3652967c.1864528 1.1069991 1.0593909 1.9740782 2.1738702 2.1592796l9.4285795 1.5826299z"/><path d="m98.1343611 157.801706h2.1548659v-24.652452h11.458815v4.797441h-3.253425l13.495374 19.855011h4.453389v4.840085h-13.313689v-4.840085h3.092866l-2.805551-4.102346h-8.332147v4.102346h2.154866v4.840085h-9.1053639zm6.9504979-8.942431h5.040696l-5.040696-7.343284z"/><path d="m98.2653431 162.641791h-6.8702187l-1.0563067-3.897655c-1.0140544-3.85501-3.8998843-7.752665-7.8039938-8.409381h-.4056218v7.466951h2.3957036v4.840085h-7.1533089v-29.492537h9.671544c4.6731008 0 8.4927058 3.85501 8.4927058 8.571428 0 3.488273-2.0745863 6.481877-4.9984432 7.833689 2.1126133 2.298507 3.6590463 4.963753 4.5125421 8.24307h3.2111724v4.84435zm-16.1319158-17.147121h4.918164c2.032334 0 3.6970734-1.680171 3.6970734-3.773988 0-2.051172-1.6647394-3.773987-3.6970734-3.773987h-4.918164z"/><path d="m72.9013068 162.641791h-4.7956323v-29.492537h4.7956323z"/><path d="m63.6311593 162.641791h-7.1110566v-4.840085h2.3576765v-15.914712l-12.8446894 20.754797h-5.2012541v-20.673774l-9.633517 15.833689h3.2914516v4.840085h-12.3123108v-4.840085h3.4139833l12.0714728-19.855011h-2.8435776v-4.797441h10.8123553v21.083155l10.0391388-16.285714h-2.8435776v-4.797441h10.8123553v29.492537z"/></g></svg>