<svg height="75" viewBox="0 0 75 75" width="75" xmlns="http://www.w3.org/2000/svg"><path d="m59.6206527 20.2271624c-.9265761-.5777281-1.7541808-2.7851169-2.332651-2.8802918-1.0955098-.1786616-2.9384235-.4458191-4.0322269-.6344991-.8412559-.1452669-1.6654479-.3873784-2.5084103-.5259663-1.3139292-.2170655-1.9913706-.3940573-2.0681587.5643702-.0648432.8014725-.5528741 1.7482119-1.2115451 2.0136997-.0409536-.7563897-.6347813-1.6179726-1.3907172-1.8884696-1.9265274-.69127-2.9776708-2.3726926-3.1892646-3.2526426-.2115937-.87995.607479-2.482895 1.4214325-3.5314882.3208035-.41242443.2371899-.67123326-.259373-.80481202-.7491103-.20203786-1.5050462-.37235077-2.2951101-.56437022-.0119448-.33060741.2286578-.49925058.5887085-.54600315 1.1057483-.14526689 1.9896643.23877202 2.7302425 1.043584.9197505.99850119 1.4129005 2.60812509 2.5203552 3.53148819 1.8207304 1.5161189 4.6465314 1.5895872 6.195944-.8716013l.5306909-.6829214c.2286578-.2371023.5716445-.4575072 1.0886842-.3840389.4948565.0717986.7934767.2654878 1.0426114.5610308.1484569-.1285696.076788-.6328294-.1211545-.9567578-.1979426-.3255982-.5136269-.53598477-.8890353-.64618724-.2917946-.08682619-.5835893-.10352353-.8856224-.03840389-.4231876.09016565-.7115694.35398373-.9760617.66121483-.017064.0183671-.0819072.0768078-.0819072.0768078-.0255961-.0417434-.0392473-.0634499-.0528985-.0851565-.199649-.3506442-.4317196-.66455427-.8293111-.83152771-.2832627-.12022088-.5750574-.15862477-.8770905-.12856955-.3890595.03840389-.7405782.18534052-.9982449.46752563-.2576666.28218513-.4283068.76306863-.3071522.91668413.302033-.2437812.6347813-.3790297 1.1330506-.3556534.5221589.0233763.7439911.3806995.9026864.6678938.1535762.2788456-.0955585.6946095-.0955585.6946095s-1.4009557 1.7999737-3.917898.1018538c-1.0579689-.7129766-1.8002536-2.00869049-2.5903175-3.00552192-.7474039-.94339993-1.3531765-1.32409937-2.4162646-1.40424662-.6194238-.04675257-1.3600021.15194583-1.3600021.15194583.7678807-.8933079 2.7456001-1.05861161 4.1141342-.76139889-.0631369-.22541414-.0972649-.38403891-.1518698-.534315-.2201258-.61613199-.2969138-1.20220876.2269514-1.7331843.0853201-.08682619.1075033-.28886405.0767881-.41910333-.1928234-.79813304-.4061236-1.59125688-.6228366-2.38271098-.1040904-.38069944-.3412803-.54099394-.7729999-.57939783-.5136268-.04508283-2.1398275-.71965552-2.5305935-.70629765-1.1193994.03673416-1.9316465.37735997-3.3547854-.08682619-.1023841-.03673415-3.0664037-.34396528-4.1294918-.45750722.0904393.12189061.4982692.41576386.6706158.59442544.5579933.57605837.484618.94006047-.2576666 1.26899814-.6433134.28385485-1.30881.58607677-1.6364391 1.23226398-.4095364.80481198-.7559359 1.64468838-1.0784458 2.48790424-.1672274.43914015-.3941788.92670259-1.0050706 1.05026294.0716689.1703129.9214569.24044175 1.274682-.03339469.3634635-.28385485.5085077-.27884564.6450198-.26882724-.7951831.65954509-1.7797768 4.01738099-1.6500903 5.69212459.0784945 1.0168682.2184194 2.0287272.3481059 3.0405863.0870265.6862608.0034128 1.3441362-.3259227 1.9519195-1.3395252 2.4745463-3.6670569 3.1057059-6.4433723 2.5012621-.658671-.1435972-2.0203794-.5142782-2.0579203-.4090849-.0614304.5409939.0255961.7296739.3378675 1.3190901.5801766 1.0920063 3.2046222 2.5229687 3.9793285 2.6665659.5545805.1035235.8139535-.0033395.8139535-.0033395s-1.525523 1.5829082-1.8139048 3.4079279c-.2798499 1.7715882-1.7985473 5.4099394-3.3087127 6.6138179-1.7439424 1.3925585-3.5988009 1.9919931-4.8820148 2.1172232-1.283214.1252301-2.3633662-.2487904-2.800205-.5493426-1.300278-.8933079-1.8343817-1.7866158-1.9828386-3.212569-.1484569-1.4242834.467554-3.0873389 1.6825119-4.3479883.9009801-.9350513 2.2524501-1.8033132 4.2898936-1.5111096 1.9470041.2805153 3.1244212 1.0452537 4.1056021 2.2107283.5870022-.5059295.3020331-2.4879043-.4777924-3.7685905-.7798255-1.2806863-2.0237923-2.1088746-3.4981232-2.5430055-1.1467019-.3389561-2.2968165-.4057455-3.4878848-.1519458-1.6620351.3556534-2.8036178 1.3958979-3.8445227 2.6031159-.0648433.075138-.3242163.3005522-.3242163.3005522-.1023841-.1653037-.156989-.2471207-.2064746-.3322772-.7832383-1.3808703-1.699576-2.6164738-3.2626398-3.2760188-1.11769302-.4725349-2.26098207-.622811-3.45205036-.5059296-1.5306422.1502761-2.91453387.729674-3.9315492 1.8400473-1.01701533 1.1103734-1.68421834 3.0038522-1.2064259 3.6099658 1.19106829-.9584276 2.49646548-1.4894031 4.46224008-1.3992374 2.05621388.0935051 2.85480981 1.5428345 3.55614086 2.6298316.94534646 1.4660268 1.02213453 3.1107152 1.08356499 4.7771101.04436644 1.2456219.1143289 1.9034972.43171959 3.1040363.39076594 1.4810544.90609924 2.5012621 3.17049414 3.4914146.0221832.0100184-1.542587 1.414265-1.733704 3.5364974-.3583444 3.9389034 3.4827656 6.6371942 7.5013412 6.2231001 3.6619378-.37736 5.9911759-1.980305 6.6976262-5.186195.3122715-1.4142651.1109161-4.306245-1.6244943-4.9340652 3.3718495-.2821851 7.0679153-1.150447 9.4090982-2.8686036-.424894.3105706-.3208035 1.5845779-.2883819 2.0270575.0955585 1.3825401.667203 3.2609913 2.0476819 3.9205364.3856468-.4408099.0648433-3.0172101.9965385-5.060965.7166887-1.5728898 2.5698408-3.8971601 3.8888892-4.9056796 1.0647946-.8131607 4.9690413-3.4847357 7.0576768-3.778609.3515188-.050092.7132759-.3105705.9845937-.5627004.8310176-.7697476 1.6023111-1.5996056 2.4350351-2.3693531.49315-.4558375 1.2559115-1.1638049 1.5118718-1.477715.2559602-.31391.6433133 1.5061004.8190727 1.9101762.4487836 1.0335656.5870021 2.1656455.5306909 2.0270575-.0989713.3439653-1.0767394.5426637-1.3361124.7881146-.1859978.1769919.0972649.8498949.1945297 1.3374573.0784945.3940573-.1825849.3389561-.1791721.8198396-.2303642.2838548-.616011.2320931-1.0016577.4558375.1894105.1185511.3139779.3289376.3515187.4942413.0307152.0584408-.3839404.1602946-.8566136-.1786615.3071523.6712332.9555849.5777281 1.0972162.6211412.1040905.0701288.191117.207047.225245.3857086.3088587-.0350644.3037395-.3556534.9555849-.6228109.7252207-2.1021956 1.941885-1.8300289 2.2661013-2.9303839 0 0-.1006777-1.1554562.2491346-1.9385616-.1040905-.3189193-.9863001-2.4444912-1.0699138-3.2225874-.0682561-.6428477-.2286578-1.2806863-.641607-1.766579-.4692604-.552682-3.0527524-.3740205-3.1619621-.3439653-.0648432-.5042597.5102141-1.1871811.9453465-1.4476597.2900883-.1736523.892448-.7797659 1.0272537-.7547199 1.0630882.2003681 3.3257767.4458191 3.4537568.5192874.3156843.1803313.3515187.9183539.5306909 1.225585.1279801.220405.8651456.1202209 1.3719468.1502761.4095364.0233763.2900883.2588089.7661743.3756903.2235386.288864.0750817.641178.2013554 1.061951.165521-.1502761.4044172-.2153957.5767637-.2087168.0648433-.0150276.0631369.4040758-.3907659.7664081.7405783-.1235603.8122471-.7613989.8890352-.8832895.0955585-.0801472.2525474-.1302393.4368388-.1185511.04266-.2972127-.2730242-.3740205-.3754083-1.0569419zm-37.9060043 21.7532997c-.3583444 1.6296607-1.7558872 2.5914277-3.4264544 2.7483828-1.7780704.1669734-3.5561408-1.1153826-3.4383991-2.9353931.0563112-.8682619.6211302-1.7081383 1.2729755-2.2391138.7166887-.5860768 1.3582957-.8114909 2.57496-.8114909.7695871 0 1.2439667.1118722 2.0715715.616132.8907416.5409939 1.1023354 1.9018274.9453465 2.621483zm18.2431391-21.0453323c-.4487836.0734683-.8003024.4174336-.875384.8565737l-.641607 3.7151591-.641607-3.7151591c-.0750817-.4391401-.4266004-.7831054-.875384-.8565737l-3.7967435-.6278201 3.7967435-.6278202c.4487836-.0734683.8003023-.4174336.875384-.8565737l.641607-3.715159.641607 3.715159c.0750816.4391401.4266004.7831054.875384.8565737l3.7967434.6278202z" fill="#fff" opacity=".9" transform="translate(7 13)"/></svg>