<svg height="20" viewBox="0 0 75 20" width="75" xmlns="http://www.w3.org/2000/svg"><g fill="#fff" opacity=".9" transform="translate(11.08873 3.074627)"><path d="m37.9784508 12.326226h1.0774328v-12.326226h5.7294075v2.39872068h-1.6267123l6.7476871 9.92750532h2.2266945v2.4200427h-6.6568447v-2.4200427h1.546433l-1.4027753-2.0511727h-4.1660736v2.0511727h1.0774328v2.4200427h-4.5526818zm3.475249-4.47121534h2.5203478l-2.5203478-3.67164179z"/><path d="m38.0439418 14.7462687h-3.4351094l-.5281533-1.9488273c-.5070272-1.9275054-1.9499422-3.87633266-3.9019969-4.20469087h-.2028109v3.73347547h1.1978518v2.4200427h-3.5766545v-14.7462687h4.835772c2.3365504 0 4.2463529 1.92750533 4.2463529 4.28571429 0 1.74413646-1.0372931 3.24093816-2.4992216 3.91684435 1.0563067 1.14925373 1.8295232 2.48187636 2.2562711 4.12153516h1.6055862v2.4221749zm-8.0659579-8.57356081h2.459082c1.016167 0 1.8485367-.84008529 1.8485367-1.8869936 0-1.02558636-.8323697-1.88699361-1.8485367-1.88699361h-2.459082z"/><path d="m25.3619237 14.7462687h-2.3978162v-14.7462687h2.3978162z"/><path d="m20.7268499 14.7462687h-3.5555283v-2.4200427h1.1788382v-7.95735606l-6.4223446 10.37739876h-2.60062712v-10.33688704l-4.81675851 7.91684434h1.64572583v2.4200427h-6.1561554v-2.4200427h1.70699161l6.03573644-9.92750532h-1.42178881v-2.39872068h5.40617766v10.5415778l5.0195694-8.14285712h-1.4217888v-2.39872068h5.4061776v14.7462687z"/></g></svg>