<svg xmlns="http://www.w3.org/2000/svg" viewBox="0 0 432 432"><defs><style>.cls-1{fill:none;stroke:#00aeef;stroke-miterlimit:10;}.cls-2,.cls-3{fill:#010101;}.cls-3{fill-rule:evenodd;}</style></defs><g id="Layer_8" data-name="Layer 8"><rect class="cls-1" x="58.4" y="30.57" width="311.81" height="368.5" rx="14.17"/><circle class="cls-1" cx="85.49" cy="57.66" r="7.09"/><circle class="cls-1" cx="343.12" cy="57.66" r="7.09"/><circle class="cls-1" cx="343.12" cy="371.99" r="7.09"/><circle class="cls-1" cx="85.49" cy="371.99" r="7.09"/><path class="cls-2" d="M180.23,92.73A10.3,10.3,0,1,1,169,81.52a8,8,0,0,0,11.21,11.21Z"/><path class="cls-2" d="M299.24,130.68l3.14-.18L300,129l3.73-2.27-4.53-1.09,2.91-2.21-3.49.25,2-3.72-4.76,2.79.23-3.39L293.89,122l-1.46-4.59-2.38,5-1.16-3.51-.45,3.68-3.23-4.27-.06,5.5-5.8-2,3.4,5.13-3.3-.28,2.48,2.19-4.6,1.55,4.85,2.69-3.82,1.26,4.19.76L278.26,139l6.29-1.35-.76,4.16,3.29-3.71,1.51,4.73,2.63-5,1.67,3.4,1.16-3.42,4.29,4.17-1.28-5.86,3.31,1.38L299,134.2l4.68.18Zm-.89,1.52-3.85.88.56,3.11-3.69-2.37L289,138.1l-1.15-3.62-3.37,1.58,1.34-3.46-3.94-1.91L286.4,129l-2.47-3.73,3.78,1,0-2.66L290,126.2l2-3.66,1.32,3.59,3-1.89-.91,3.46,3.4.18-2.85,2.22Z"/><path class="cls-2" d="M178.65,83.31h-.8v-.79a.63.63,0,1,0-1.25,0v.79h-.79a.63.63,0,0,0,0,1.25h.79v.79a.63.63,0,1,0,1.25,0v-.79h.8a.63.63,0,0,0,0-1.25Z"/><path class="cls-2" d="M139.91,139.14a.55.55,0,0,0,.55.55h5a.55.55,0,0,0,.55-.55V138h-6.11Z"/><path class="cls-2" d="M148.11,121.32a7.79,7.79,0,0,0-11.4,10.5,20.35,20.35,0,0,1,1.7,2.62l1.27,2.47h6.56l1.28-2.47a20.35,20.35,0,0,1,1.7-2.62A7.84,7.84,0,0,0,148.11,121.32Zm-2.29,8.31a.63.63,0,0,1-.88.89l-2-2-2,2a.63.63,0,0,1-.88-.89l2-2-2-2a.63.63,0,0,1,.88-.89l2,2,2-2a.63.63,0,0,1,.88.89l-2,2Z"/><path class="cls-2" d="M143,142.05a1.67,1.67,0,0,0,1.62-1.25h-3.23A1.7,1.7,0,0,0,143,142.05Z"/><path class="cls-3" d="M206.65,71.31h-.8v-.79a.63.63,0,1,0-1.25,0v.79h-.79a.63.63,0,0,0,0,1.25h.79v.79a.63.63,0,1,0,1.25,0v-.79h.8a.63.63,0,0,0,0-1.25Z"/><path class="cls-3" d="M216.65,64.31h-.8v-.79a.63.63,0,1,0-1.25,0v.79h-.79a.63.63,0,0,0,0,1.25h.79v.79a.63.63,0,1,0,1.25,0v-.79h.8a.63.63,0,0,0,0-1.25Z"/><path class="cls-3" d="M228.65,71.31h-.8v-.79a.63.63,0,1,0-1.25,0v.79h-.79a.63.63,0,0,0,0,1.25h.79v.79a.63.63,0,1,0,1.25,0v-.79h.8a.63.63,0,0,0,0-1.25Z"/><path class="cls-3" d="M211.91,76.11V74.86a2.55,2.55,0,0,0,1.65-1.64,5.21,5.21,0,0,0,.25-3.3,6.56,6.56,0,0,0-2-3.36.63.63,0,0,0-.4-.14.62.62,0,0,0-.39.14,6.56,6.56,0,0,0-2,3.36,5.15,5.15,0,0,0,.25,3.3,2.56,2.56,0,0,0,1.64,1.64v1.26c-2.1.14-3.73,1.15-3.73,2.39v8c0,1.34,1.9,2.43,4.25,2.43s4.25-1.09,4.25-2.43v-8C215.68,77.27,214,76.25,211.91,76.11Zm-1.72-3.29a4.21,4.21,0,0,1-.2-2.66,5.63,5.63,0,0,1,1.42-2.6,5.54,5.54,0,0,1,1.42,2.6,4.15,4.15,0,0,1-.19,2.66,1.93,1.93,0,0,1-.73.94v-.65a.5.5,0,0,0-.5-.5.51.51,0,0,0-.5.5v.65A2,2,0,0,1,210.19,72.82Zm.72,4.29v1.35a.5.5,0,0,0,.5.5.5.5,0,0,0,.5-.5V77.11c1.68.13,2.77.88,2.77,1.4s-1.29,1.43-3.25,1.43-3.25-.86-3.25-1.43S209.25,77.25,210.91,77.11Z"/><path class="cls-3" d="M221.91,73.11V71.86a2.55,2.55,0,0,0,1.65-1.64,5.21,5.21,0,0,0,.25-3.3,6.56,6.56,0,0,0-2-3.36.63.63,0,0,0-.4-.14.62.62,0,0,0-.39.14,6.56,6.56,0,0,0-2,3.36,5.15,5.15,0,0,0,.25,3.3,2.56,2.56,0,0,0,1.64,1.64v1.26c-2.1.14-3.73,1.15-3.73,2.39v11c0,1.34,1.9,2.43,4.25,2.43s4.25-1.09,4.25-2.43v-11C225.68,74.27,224,73.25,221.91,73.11Zm-1.72-3.29a4.21,4.21,0,0,1-.2-2.66,5.63,5.63,0,0,1,1.42-2.6,5.54,5.54,0,0,1,1.42,2.6,4.15,4.15,0,0,1-.19,2.66,1.93,1.93,0,0,1-.73.94v-.65a.5.5,0,0,0-.5-.5.51.51,0,0,0-.5.5v.65A2,2,0,0,1,220.19,69.82Zm.72,4.29v1.35a.5.5,0,0,0,.5.5.5.5,0,0,0,.5-.5V74.11c1.68.13,2.77.88,2.77,1.4s-1.29,1.43-3.25,1.43-3.25-.86-3.25-1.43S219.25,74.25,220.91,74.11Z"/><path class="cls-2" d="M264.89,83.87l.06,0L263.05,81V77.76a.5.5,0,1,0-1,0v3h-1.11v-3a.51.51,0,0,0-.5-.5.5.5,0,0,0-.5.5V81l-1.8,2.84h0a10.37,10.37,0,0,0,6.51,19.7.5.5,0,1,0-.31-1,9.35,9.35,0,0,1-1.67.35A7.23,7.23,0,0,0,264,101h3.3a10.85,10.85,0,0,1-1,.71.48.48,0,0,0-.17.68.49.49,0,0,0,.68.17,10.37,10.37,0,0,0-1.93-18.7Zm5.51,12.66h-1.72c.06-.26.13-.51.18-.78a.5.5,0,0,0-1-.17,7.7,7.7,0,0,1-.22,1h-2.3a18.06,18.06,0,0,0,.19-2.48h5.31A9.51,9.51,0,0,1,270.4,96.53Zm-7,1h.73a14.63,14.63,0,0,1-.74,2.49h-3.58a13.77,13.77,0,0,1-.74-2.49h2.06a.5.5,0,0,0,.5-.5.5.5,0,0,0-.5-.5h-2.24a17.92,17.92,0,0,1-.2-2.48h5.82a17.92,17.92,0,0,1-.2,2.48h-.9a.5.5,0,0,0,0,1ZM255.68,101h3.55a7.11,7.11,0,0,0,1.4,2A9.27,9.27,0,0,1,255.68,101Zm1.61-1a9.88,9.88,0,0,1-1.37-2.49h2.16a15.51,15.51,0,0,0,.71,2.49Zm-4.63-9.46h2a12,12,0,0,0-.37,2.49h-2.1A9.34,9.34,0,0,1,252.66,90.55ZM265.52,93a19.27,19.27,0,0,0-.21-2.49h2.28A11.25,11.25,0,0,1,268,93Zm-.38-3.49a13.12,13.12,0,0,0-.82-2.48h1.52a9.23,9.23,0,0,1,1.43,2.48Zm-1.9-2.48a11.5,11.5,0,0,1,.86,2.48h-5a12.89,12.89,0,0,1,.81-2.48Zm-2.75-1a4.82,4.82,0,0,1,1.14-1.31,4.66,4.66,0,0,1,.86.83.49.49,0,0,0,.7.08.5.5,0,0,0,.08-.7,5.26,5.26,0,0,0-.54-.59A9.2,9.2,0,0,1,267,86.07Zm.11-1.74a6.81,6.81,0,0,0-1.27,1.74H256A9.29,9.29,0,0,1,260.6,84.33Zm-1.74,2.74a14.5,14.5,0,0,0-.74,2.48H256a9.62,9.62,0,0,1,1.47-2.48Zm-.92,3.48c0,.27-.08.54-.11.81a.5.5,0,0,0,.45.55h.05a.51.51,0,0,0,.5-.45c0-.31.08-.62.13-.92h5.34a17.34,17.34,0,0,1,.22,2.49h-9.27a10.82,10.82,0,0,1,.43-2.49ZM252.13,94h2.11a12,12,0,0,0,.32,2.48h-2A9.69,9.69,0,0,1,252.13,94Zm3.11,0h2.48a18.06,18.06,0,0,0,.19,2.48H255.6A10.76,10.76,0,0,1,255.24,94ZM269,93a12,12,0,0,0-.33-2.49h1.71a9.34,9.34,0,0,1,.51,2.49Zm1-3.49h-1.57a10.31,10.31,0,0,0-1.25-2.48h1.06A9.69,9.69,0,0,1,269.91,89.55Zm-9.29-7.75h1.75l1.14,1.69a10.37,10.37,0,0,0-3.95,0Zm-5.78,5.27h1.4a10.29,10.29,0,0,0-1.3,2.48h-1.86A9.24,9.24,0,0,1,254.84,87.07ZM253,97.52h1.89a11,11,0,0,0,1.21,2.49h-1.34l-.1,0A9.21,9.21,0,0,1,253,97.52Zm8.67,5a4.91,4.91,0,0,1-1.3-1.56h2.6A5,5,0,0,1,261.63,102.57Zm3.55-5h2.14A10,10,0,0,1,266,100h-1.51A15.51,15.51,0,0,0,265.18,97.52Zm3.16,2.53a.46.46,0,0,0-.21,0h-1a10.79,10.79,0,0,0,1.22-2.48H270A9.45,9.45,0,0,1,268.34,100.05Z"/><path class="cls-2" d="M254.57,82.14h.79v.79a.63.63,0,1,0,1.25,0v-.79h.79a.63.63,0,1,0,0-1.25h-.79V80.1a.63.63,0,1,0-1.25,0v.79h-.79a.63.63,0,1,0,0,1.25Z"/><path class="cls-2" d="M250.57,80.14h.79v.79a.63.63,0,1,0,1.25,0v-.79h.79a.63.63,0,1,0,0-1.25h-.79V78.1a.63.63,0,1,0-1.25,0v.79h-.79a.63.63,0,1,0,0,1.25Z"/><path class="cls-2" d="M252.4,101.89h-.79v-.79a.63.63,0,1,0-1.25,0v.79h-.79a.63.63,0,1,0,0,1.25h.79v.79a.63.63,0,1,0,1.25,0v-.79h.79a.63.63,0,1,0,0-1.25Z"/><path class="cls-2" d="M269.57,84.14h.79v.79a.63.63,0,1,0,1.25,0v-.79h.79a.63.63,0,1,0,0-1.25h-.79V82.1a.63.63,0,1,0-1.25,0v.79h-.79a.63.63,0,1,0,0,1.25Z"/><path class="cls-2" d="M275.4,96.89h-.79V96.1a.63.63,0,1,0-1.25,0v.79h-.79a.63.63,0,1,0,0,1.25h.79v.79a.63.63,0,1,0,1.25,0v-.79h.79a.63.63,0,1,0,0-1.25Z"/><path class="cls-2" d="M249.57,85.14h.79v.79a.63.63,0,1,0,1.25,0v-.79h.79a.63.63,0,1,0,0-1.25h-.79V83.1a.63.63,0,1,0-1.25,0v.79h-.79a.63.63,0,1,0,0,1.25Z"/><path class="cls-2" d="M273.29,101.24h-.79v-.79a.63.63,0,1,0-1.25,0v.79h-.79a.63.63,0,1,0,0,1.25h.79v.79a.63.63,0,1,0,1.25,0v-.79h.79a.63.63,0,1,0,0-1.25Z"/><circle class="cls-1" cx="155.04" cy="295.73" r="9.92"/><circle class="cls-1" cx="277.04" cy="295.73" r="9.92"/><path id="SVGID" d="M284.84,357.2a2.13,2.13,0,1,1,2.12-2.13A2.13,2.13,0,0,1,284.84,357.2Zm-4.25-5.67a2.13,2.13,0,1,1,2.12-2.13A2.13,2.13,0,0,1,280.59,351.53Zm-7.09,0a2.13,2.13,0,1,1,2.13-2.13A2.13,2.13,0,0,1,273.5,351.53Zm-4.25,5.67a2.13,2.13,0,1,1,2.12-2.13A2.13,2.13,0,0,1,269.25,357.2ZM277,344.44A12.76,12.76,0,0,0,277,370a2.12,2.12,0,0,0,2.13-2.12,2.16,2.16,0,0,0-.55-1.44,2.08,2.08,0,0,1-.54-1.4,2.12,2.12,0,0,1,2.12-2.13h2.51a7.09,7.09,0,0,0,7.09-7.08C289.8,349.51,284.09,344.44,277,344.44Z"/><path d="M162.42,350.82a1,1,0,0,1-.71-.29,1,1,0,0,1,0-1.42l1.65-1.64a1,1,0,0,1,1.41,1.41l-1.65,1.65A1,1,0,0,1,162.42,350.82Z"/><path d="M146,367.22a1,1,0,0,1-.71-1.71l1.65-1.65a1,1,0,1,1,1.41,1.42l-1.64,1.64A1,1,0,0,1,146,367.22Z"/><path d="M167.8,358.2h-2.32a1,1,0,1,1,0-2h2.32a1,1,0,0,1,0,2Z"/><path d="M144.61,358.2h-2.32a1,1,0,0,1,0-2h2.32a1,1,0,0,1,0,2Z"/><path d="M164.06,367.22a1,1,0,0,1-.7-.3l-1.65-1.64a1,1,0,0,1,0-1.42,1,1,0,0,1,1.41,0l1.65,1.65a1,1,0,0,1,0,1.41A1,1,0,0,1,164.06,367.22Z"/><path d="M147.67,350.82a1,1,0,0,1-.71-.29l-1.65-1.65a1,1,0,0,1,0-1.41,1,1,0,0,1,1.42,0l1.64,1.64a1,1,0,0,1,0,1.42A1,1,0,0,1,147.67,350.82Z"/><path d="M155,371a1,1,0,0,1-1-1v-2.32a1,1,0,0,1,2,0V370A1,1,0,0,1,155,371Z"/><path d="M155,347.76a1,1,0,0,1-1-1v-2.32a1,1,0,0,1,2,0v2.32A1,1,0,0,1,155,347.76Z"/><circle cx="155.04" cy="357.2" r="6.74"/><path class="cls-1" d="M223.93,161.55V151.8l0-1a10.18,10.18,0,0,0-16.82,0l0,1v9.75l0,1.11a10.25,10.25,0,0,0,16.84-.11Z"/></g></svg>